<?xml version="1.0" encoding="iso-8859-1"?>
<!-- Generator: Adobe Illustrator 21.0.0, SVG Export Plug-In . SVG Version: 6.00 Build 0)  -->
<svg version="1.1" id="Layer_1" xmlns="http://www.w3.org/2000/svg" xmlns:xlink="http://www.w3.org/1999/xlink" x="0px" y="0px"
	 viewBox="0 0 100.353 100.352" style="enable-background:new 0 0 100.353 100.352;" xml:space="preserve">
<g>
	<path d="M83.89,26.989H63.813v-4.587c0-4.445-2.97-8.062-6.622-8.062H42.809c-3.651,0-6.622,3.617-6.622,8.062v4.587H16.11
		c-4.808,0-8.719,3.912-8.719,8.719V74.29c0,4.808,3.912,8.719,8.719,8.719h67.779c4.808,0,8.719-3.912,8.719-8.719V35.708
		C92.609,30.901,88.698,26.989,83.89,26.989z M39.188,22.402c0-2.744,1.659-5.062,3.622-5.062h14.382
		c1.963,0,3.622,2.318,3.622,5.062v4.587H39.189L39.188,22.402L39.188,22.402z M89.609,74.29c0,3.154-2.565,5.719-5.719,5.719
		H16.111c-3.154,0-5.719-2.565-5.719-5.719V35.708c0-3.154,2.565-5.719,5.719-5.719H83.89c3.154,0,5.719,2.565,5.719,5.719V74.29z"
		/>
	<rect x="33.202" y="58.489" width="3" height="12.935"/>
	<rect x="43.807" y="53.556" width="3" height="17.868"/>
	<rect x="54.043" y="48.938" width="3" height="22.486"/>
	<rect x="63.799" y="38.574" width="3" height="32.85"/>
</g>
</svg>
